<svg width="18" height="18" viewBox="0 0 18 18" fill="none" xmlns="http://www.w3.org/2000/svg">
<path id="SF Symbol" d="M5.02269 18C5.42287 18 5.70054 17.7738 6.19873 17.304L9.01633 14.6332H14.2595C16.6933 14.6332 18 13.1977 18 10.6486V3.98453C18 1.43548 16.6933 0 14.2595 0H3.74047C1.30672 0 0 1.42678 0 3.98453V10.6486C0 13.2064 1.30672 14.6332 3.74047 14.6332H4.13249V16.8951C4.13249 17.565 4.451 18 5.02269 18ZM5.35753 16.4079V13.885C5.35753 13.4152 5.18603 13.2325 4.74501 13.2325H3.74047C2.09074 13.2325 1.31488 12.3364 1.31488 10.6399V3.98453C1.31488 2.28806 2.09074 1.40068 3.74047 1.40068H14.2595C15.9011 1.40068 16.6851 2.28806 16.6851 3.98453V10.6399C16.6851 12.3364 15.9011 13.2325 14.2595 13.2325H8.96733C8.50998 13.2325 8.28131 13.3021 7.97096 13.6414L5.35753 16.4079ZM4.79401 4.91542H13.108C13.3693 4.91542 13.5735 4.69792 13.5735 4.41083C13.5735 4.14113 13.3693 3.91493 13.108 3.91493H4.79401C4.53267 3.91493 4.32033 4.14113 4.32033 4.41083C4.32033 4.69792 4.53267 4.91542 4.79401 4.91542ZM4.79401 7.75157H13.108C13.3693 7.75157 13.5735 7.52537 13.5735 7.23828C13.5735 6.96858 13.3693 6.74239 13.108 6.74239H4.79401C4.53267 6.74239 4.32033 6.96858 4.32033 7.23828C4.32033 7.52537 4.53267 7.75157 4.79401 7.75157ZM4.79401 10.579H10.2005C10.4619 10.579 10.6661 10.3615 10.6661 10.0831C10.6661 9.79604 10.4619 9.56984 10.2005 9.56984H4.79401C4.53267 9.56984 4.32033 9.79604 4.32033 10.0831C4.32033 10.3615 4.53267 10.579 4.79401 10.579Z" fill="#3CC39E"/>
</svg>
