<svg xmlns="http://www.w3.org/2000/svg" width="14" height="18" viewBox="0 0 14 18" fill="none">
    <path d="M0 15.3722C0 17.1269 0.857313 18 2.58026 18H11.4197C13.1427 18 14 17.1269 14 15.3722V2.63619C14 0.889925 13.1427 0 11.4197 0H2.58026C0.857313 0 0 0.889925 0 2.63619V15.3722ZM1.34007 15.347V2.66138C1.34007 1.82183 1.78121 1.35168 2.64685 1.35168H11.3532C12.2188 1.35168 12.6599 1.82183 12.6599 2.66138V15.347C12.6599 16.1866 12.2188 16.6483 11.3532 16.6483H2.64685C1.78121 16.6483 1.34007 16.1866 1.34007 15.347ZM3.85375 4.8694H10.1629C10.4625 4.8694 10.679 4.63433 10.679 4.34049C10.679 4.05504 10.4625 3.83675 10.1629 3.83675H3.85375C3.5541 3.83675 3.32937 4.05504 3.32937 4.34049C3.32937 4.63433 3.5541 4.8694 3.85375 4.8694ZM3.85375 7.79944H10.1629C10.4625 7.79944 10.679 7.56437 10.679 7.27052C10.679 6.98507 10.4625 6.76679 10.1629 6.76679H3.85375C3.5541 6.76679 3.32937 6.98507 3.32937 7.27052C3.32937 7.56437 3.5541 7.79944 3.85375 7.79944ZM3.85375 10.7295H6.84186C7.13317 10.7295 7.35791 10.5028 7.35791 10.2174C7.35791 9.92351 7.13317 9.69683 6.84186 9.69683H3.85375C3.5541 9.69683 3.32937 9.92351 3.32937 10.2174C3.32937 10.5028 3.5541 10.7295 3.85375 10.7295Z"
          fill="#201E2E"></path>
</svg>