<svg xmlns="http://www.w3.org/2000/svg" width="26" height="22" viewBox="0 0 26 22" fill="none">
    <path d="M24.6056 9.93142H23.2246C22.6802 4.80037 18.2548 0.717712 13.0028 0.717712C9.9282 0.717712 7.15602 2.10884 5.26086 4.29634C4.8778 4.72981 4.9282 5.26408 5.33142 5.54634C5.72457 5.8286 6.19836 5.73787 6.53102 5.36489C8.1036 3.57054 10.4222 2.43142 13.0028 2.43142C17.3879 2.43142 20.9665 5.68747 21.4907 9.93142H19.9887C19.273 9.93142 19.0915 10.4153 19.4746 10.9697L21.7326 14.1855C22.0552 14.6492 22.5391 14.6592 22.8717 14.1855L25.1197 10.9798C25.523 10.4153 25.3314 9.93142 24.6056 9.93142ZM1.38989 12.0786H2.78102C3.32538 17.2097 7.7407 21.2822 13.0028 21.2822C16.0774 21.2822 18.8597 19.881 20.7548 17.7036C21.1278 17.2701 21.0774 16.7258 20.6842 16.4435C20.2911 16.1613 19.8072 16.2621 19.4847 16.6351C17.9222 18.4395 15.6036 19.5685 13.0028 19.5685C8.60763 19.5685 5.02901 16.3226 4.50481 12.0786H6.01691C6.73263 12.0786 6.91409 11.5847 6.53102 11.0403L4.27296 7.82457C3.95038 7.36086 3.46651 7.35078 3.13384 7.82457L0.875779 11.0302C0.482634 11.5847 0.664085 12.0786 1.38989 12.0786Z" fill="white"></path>
</svg>