<svg width="16" height="16" viewBox="0 0 16 16" fill="none" xmlns="http://www.w3.org/2000/svg">
<rect width="16" height="16" rx="6" fill="#201E2E"/>
<path d="M8.18 13.068C7.662 13.068 7.312 12.578 7.312 11.948C7.312 11.598 7.438 11.066 7.69 10.352C7.942 9.624 8.068 8.924 8.068 8.196C7.452 8.574 6.99 8.966 6.64 9.358C5.94 10.142 5.254 10.912 4.526 10.912C4.078 10.912 3.714 10.562 3.714 10.142C3.714 9.68 4.092 9.218 4.918 8.994C5.324 8.882 5.786 8.756 6.304 8.658C6.808 8.56 7.368 8.336 7.956 8C7.354 7.664 6.78 7.44 6.248 7.328C5.198 7.104 4.358 6.922 3.994 6.502C3.812 6.292 3.714 6.068 3.714 5.83C3.714 5.41 4.05 5.088 4.54 5.088C5.282 5.088 6.15 6.068 6.766 6.768C7.074 7.118 7.508 7.468 8.068 7.804V7.622C8.068 7.062 8.026 6.6 7.914 6.264C7.69 5.592 7.34 4.542 7.34 4.052C7.34 3.408 7.704 2.932 8.208 2.932C8.698 2.932 9.076 3.38 9.076 4.052C9.076 4.388 8.95 4.934 8.698 5.676C8.446 6.418 8.32 7.132 8.32 7.804C9.118 7.3 9.02 7.356 9.706 6.698C10.364 5.97 10.826 5.522 11.078 5.354C11.344 5.172 11.61 5.088 11.89 5.088C12.338 5.088 12.674 5.396 12.674 5.83C12.674 6.306 12.324 6.712 11.512 6.978C11.12 7.104 10.658 7.216 10.14 7.328C9.608 7.44 9.048 7.664 8.432 8C9.034 8.336 9.58 8.546 10.098 8.658C11.12 8.882 11.988 9.078 12.38 9.484C12.576 9.694 12.674 9.904 12.674 10.142C12.674 10.562 12.338 10.912 11.848 10.912C11.022 10.912 9.958 9.596 9.552 9.134C9.356 8.91 8.936 8.588 8.32 8.196V8.378C8.32 8.98 8.446 9.652 8.684 10.38C8.922 11.108 9.048 11.626 9.048 11.948C9.048 12.606 8.67 13.068 8.18 13.068Z" fill="#3CC39E"/>
</svg>
